<?xml version="1.0" encoding="utf-8"?>
<!-- Generator: Adobe Illustrator 25.2.1, SVG Export Plug-In . SVG Version: 6.00 Build 0)  -->
<svg version="1.1" id="Layer_1" xmlns="http://www.w3.org/2000/svg" xmlns:xlink="http://www.w3.org/1999/xlink" x="0px" y="0px"
	 viewBox="0 0 400 350" style="enable-background:new 0 0 400 350;" xml:space="preserve">
<style type="text/css">
	.st0{clip-path:url(#SVGID_2_);}
	.st1{fill:#0B0B0B;}
	.st2{fill:#FFFFFF;}
	.st3{clip-path:url(#SVGID_4_);}
	.st4{clip-path:url(#SVGID_6_);}
	.st5{clip-path:url(#SVGID_8_);}
	.st6{clip-path:url(#SVGID_10_);}
	.st7{clip-path:url(#SVGID_12_);}
	.st8{clip-path:url(#SVGID_14_);}
	.st9{clip-path:url(#SVGID_16_);}
	.st10{clip-path:url(#SVGID_18_);}
	.st11{clip-path:url(#SVGID_20_);}
	.st12{clip-path:url(#SVGID_22_);}
	.st13{clip-path:url(#SVGID_24_);}
	.st14{clip-path:url(#SVGID_26_);}
	.st15{clip-path:url(#SVGID_28_);}
	.st16{clip-path:url(#SVGID_30_);}
	.st17{clip-path:url(#SVGID_32_);}
	.st18{clip-path:url(#SVGID_34_);}
	.st19{clip-path:url(#SVGID_36_);}
	.st20{clip-path:url(#SVGID_38_);}
	.st21{clip-path:url(#SVGID_40_);}
	.st22{clip-path:url(#SVGID_42_);}
	.st23{clip-path:url(#SVGID_44_);}
	.st24{clip-path:url(#SVGID_46_);}
	.st25{clip-path:url(#SVGID_48_);}
	.st26{clip-path:url(#SVGID_50_);}
	.st27{clip-path:url(#SVGID_52_);}
	.st28{clip-path:url(#SVGID_54_);}
	.st29{clip-path:url(#SVGID_56_);}
	.st30{clip-path:url(#SVGID_58_);}
	.st31{clip-path:url(#SVGID_60_);}
	.st32{clip-path:url(#SVGID_62_);}
	.st33{clip-path:url(#SVGID_64_);}
	.st34{clip-path:url(#SVGID_66_);}
	.st35{clip-path:url(#SVGID_68_);}
	.st36{clip-path:url(#SVGID_70_);}
	.st37{clip-path:url(#SVGID_72_);}
	.st38{clip-path:url(#SVGID_74_);}
	.st39{clip-path:url(#SVGID_76_);}
	.st40{clip-path:url(#SVGID_78_);}
	.st41{clip-path:url(#SVGID_80_);}
	.st42{clip-path:url(#SVGID_82_);}
</style>
<g id="surface1">
	<g>
		<defs>
			<rect id="SVGID_1_" x="44" y="9.6" width="312" height="322.6"/>
		</defs>
		<clipPath id="SVGID_2_">
			<use xlink:href="#SVGID_1_"  style="overflow:visible;"/>
		</clipPath>
		<g class="st0">
			<path d="M145.5,9.7c-1.7,0.1-3.3,0.6-4.7,1.3c-5.6,2.8-8.1,8.3-9.1,13.3v0c-1.1,5.4,0.2,11.2,0.3,18.9s-0.5,16.6-4.1,25.1
				l0.8,0.3c-4.3,3-9.5,6.4-16.5,10.3C85.1,93.9,68.2,120.2,58,144.7c-10.2,24.5-13.8,47.1-13.8,57.4c0,20.7-0.5,58,35.9,100.5
				c22.4,26.2,59.7,31.1,93.8,28.3s65.4-13.1,78.9-20.2c46-24.4,73.4-56.3,88-85c5.6-11,9.3-21.6,11.5-31.1c0-0.1,0.1-0.3,0.1-0.4
				c0,0,0.4-1.8,0.8-4.5c0.2-1.1,0.5-2.3,0.7-3.4c1.7-11.5,1.2-20.9-1.7-27.7h0c-11.7-27.5-6.6-44.5-6.6-60.6c0-8.7-4-21.8-8.4-34.7
				s-9-24.4-12.1-29.5c-2.6-4.3-6.2-9.5-11.5-12.6c-2.6-1.6-6-2.6-9.5-1.9c-3.5,0.7-6.7,3.1-9.1,6.5c-3.3,4.7-12,13.4-19.5,20.6
				c-6.6,6.2-10.8,10-12.3,11.2c-4.1-1.4-24.2-8-49.6-4.2c-1.1-0.4-2.1-0.7-3.2-1.1l0.2-0.4c0,0-29.4-12-50.3-34.5
				c-3.3-3.5-6.5-5.8-9.9-6.9C148.9,9.8,147.1,9.6,145.5,9.7z M146.2,19.4c0.4,0,0.8,0,1.4,0.2c1.2,0.4,3.2,1.6,5.7,4.2
				c9,9.7,19.3,17.4,28.4,23.3c-8.1,0-16,1-23.1,3.1c-7.6,2.3-12.7,5.6-18.1,9.6c1.1-6,1.4-11.8,1.4-16.8
				c-0.1-8.4-0.8-15.7-0.5-16.8c0.6-2.8,2.5-5.8,3.8-6.5C145.5,19.6,145.8,19.5,146.2,19.4z M306.2,28.8c0.6-0.1,1.3,0,2.6,0.7
				c2.5,1.5,6,5.7,8.1,9.2c1.6,2.7,6.9,15.1,11.2,27.6c4.3,12.5,7.9,26.4,7.9,31.5c0,12.4-4.3,30.5,4.1,55.8
				c-7.1-4.7-15.7-7.5-25.5-7c-11.7,0.6-24.9,5.8-39.2,16.7c-4.1,3.1-7.6,5.8-10.8,8c-0.4,0.3-0.8,0.7-1.1,1.1
				c-0.5,0.6-0.8,1.3-0.9,2.1s-0.1,1.5,0.1,2.3c0.2,0.7,0.6,1.4,1.1,2c0.5,0.6,1.2,1,1.9,1.3l0,0l0,0c0.5,0.2,1.1,0.3,1.7,0.3
				c0,0,0,0,0,0h0c1,0,2-0.3,2.8-0.9c3.5-2.4,7.1-5.2,11.1-8.3c12.6-9.6,23.3-13.8,32.3-14.6l2.4,2.6l1.7,0.3l3.9-2l0.1-0.7
				c6.2,0.9,11.4,3.5,15.8,7.3c4.8,4,6.3,10.5,6.4,16.6c0.1,2.8-0.2,5.3-0.5,7.2c-1.8,9.7-5.4,21.1-11.6,33.2
				c-13.7,26.9-39.5,57.3-83.8,80.8c-11.2,6-42.5,16.5-75.1,19.1c-32.6,2.6-66.3-2.5-85.6-24.9c-34.6-40.4-33.5-73.1-33.5-94.1
				c0-6.5,2.4-23.1,8.7-41.8l0.2,0.2l1.7,0.3l3.9-2l0.8-4.3l-3-3.2l-0.3-0.1c0.4-0.9,0.7-1.8,1.1-2.7c9.7-23.3,25.5-47.5,49.9-61
				c13.7-7.6,21.5-13.8,27.5-18.3s9.8-7.3,16.9-9.4c14.4-4.3,33.8-3.7,49.9,3l1.3,0.5L214,63c25.8-4.2,49.1,4.4,49.1,4.4l2.8,1
				l2.2-1.9c0,0,6.7-5.9,14.4-13.2c3-2.9,6.2-6,9.2-9c1,20.2-4.1,38.3-4.1,38.3l-0.5,1.9l0.9,1.7c0,0,7.4,15.2,23,23
				c0.3,0.1,0.6,0.3,0.9,0.3s0.6,0.1,0.9,0.2c0.3,0,0.6,0,1,0s0.6-0.1,0.9-0.2c0.3-0.1,0.6-0.2,0.9-0.4c0.3-0.2,0.5-0.3,0.8-0.6
				s0.5-0.4,0.7-0.7c0.2-0.3,0.4-0.5,0.5-0.8s0.3-0.6,0.3-0.9c0.1-0.3,0.1-0.6,0.2-1c0-0.3,0-0.6,0-1s-0.1-0.6-0.2-0.9
				c-0.1-0.3-0.2-0.6-0.4-0.9s-0.3-0.5-0.6-0.8c-0.2-0.2-0.4-0.5-0.7-0.7c-0.3-0.2-0.5-0.4-0.8-0.5c-11.1-5.6-16.8-15.6-17.8-17.4
				c0.9-3.3,6.5-24.3,3.1-48.3c0,0,0-0.1,0-0.1c0.9-1.1,1.9-2.3,2.6-3.3C304.7,29.3,305.6,28.9,306.2,28.8z M115.2,125.7
				c-8.7,0-17.4,13-17.4,13s0,19.5,13,19.5s21.7-21.7,21.7-21.7S123.8,125.7,115.2,125.7z M115.1,131c1,0,2.1,0.3,3.1,0.7
				c-5.9,1.7-10.2,7.1-10.2,13.6c0,2.9,0.9,5.5,2.3,7.8c-7.1-1.7-7.1-13.1-7.1-13.1S109.2,131,115.1,131z M200.9,132.7
				c-19,0-19.8,18.4-19.8,18.4s8.2,18,23.6,16.2c15.4-1.8,25-18.2,25-18.2s0-1.8-7.7-9.1C214.4,132.7,206.6,132.7,200.9,132.7z
				 M197.3,138.2c1.1,0,2.4,0,3.8,0.3c-5.8,4.5-8.5,8.4-9.5,18.3c-2.6-3.4-4.4-5.3-4.4-5.3S190,138.2,197.3,138.2z M80.3,162.1
				l-3.9,2l-0.8,4.3l3,3.2l1.7,0.3l3.9-2l0.8-4.3l-3-3.2L80.3,162.1z M325,166.5l-3.9,2l-0.8,4.3l3,3.2l1.7,0.3l3.9-2l0.8-4.3
				l-3-3.2L325,166.5z M97,174.7c-1.8,0-3.4,0-4.6,0.1c-5.7,0.3-12.6,3.6-14.4,14.4c-1.8,10.8,9,27,18,27c0,0,2.9,0.9,10.1-0.9
				c7.2-1.8,20.5-11.7,25.9-26.1c0.1-0.4,0.1-0.7,0.2-1l0.4,0.1l3.9-2l0.8-4.3l-3-3.2l-1.7-0.3l-3.9,2
				C121.6,175.7,105.9,174.7,97,174.7z M250.1,179.8l-3.9,2l-0.8,4.3l3,3.2l1.7,0.3l3.9-2l0.8-4.3l-3-3.2L250.1,179.8z M152.3,179.9
				l-3.9,2l-0.8,4.3l3,3.2l1.7,0.3l3.9-2l0.8-4.3l-3-3.2L152.3,179.9z M171.9,181.2l-3.9,2l-0.8,4.3l3,3.2l1.7,0.3l3.9-2l0.8-4.3
				l-3-3.2L171.9,181.2z M191.5,182.3l-3.9,2l-0.8,4.3l3,3.2l1.7,0.3l3.9-2l0.8-4.3l-3-3.2L191.5,182.3z M211.2,183.1l-3.9,2
				l-0.8,4.3l3,3.2l1.7,0.3l3.9-2l0.8-4.3l-3-3.2L211.2,183.1z M230.8,183.1l-3.9,2l-0.8,4.3l3,3.2l1.7,0.3l3.9-2l0.8-4.3l-3-3.2
				L230.8,183.1z M323,186l-3.9,2l-0.8,4.3l3,3.2l1.7,0.3l3.9-2l0.8-4.3l-3-3.2L323,186z M316.6,204.5l-3.9,2l-0.8,4.3l3,3.2
				l1.7,0.3l3.9-2l0.8-4.3l-3-3.2L316.6,204.5z M307.2,221.8l-3.9,2l-0.8,4.3l3,3.2l1.7,0.3l3.9-2l0.8-4.3l-3-3.2L307.2,221.8z
				 M100.4,223.3c-10.8-0.5-19.5,10.6-19.5,10.6s13.2,8.4,26.5,11.4c54.6,12.6,72.5-11,72.5-11s-22.5,7.2-47.3,4.2
				C117.7,236.7,109.1,223.7,100.4,223.3z M295.6,237.6l-3.9,2l-0.8,4.3l3,3.2l1.7,0.3l3.9-2l0.8-4.3l-3-3.2L295.6,237.6z
				 M281.9,251.8l-3.9,2l-0.8,4.3l3,3.2l1.7,0.3l3.9-2l0.8-4.3l-3-3.2L281.9,251.8z M102.7,258.4c-0.5,0-1,0.1-1.4,0.2
				c-0.5,0.1-0.9,0.4-1.3,0.6c-0.4,0.3-0.8,0.6-1.1,1c-0.3,0.4-0.6,0.8-0.7,1.2s-0.3,0.9-0.3,1.4c0,0.5,0,1,0.1,1.4
				c0.1,0.5,0.3,0.9,0.5,1.4c0.2,0.4,0.5,0.8,0.9,1.1c6.2,6.2,17.4,11.3,30.1,11.3c0.3,0,0.6,0,1-0.1s0.6-0.1,0.9-0.3
				c0.3-0.1,0.6-0.3,0.9-0.4c0.3-0.2,0.5-0.4,0.8-0.6c0.2-0.2,0.4-0.5,0.6-0.8s0.3-0.6,0.5-0.9s0.2-0.6,0.3-0.9s0.1-0.6,0.1-1
				c0-0.3,0-0.6-0.1-1c-0.1-0.3-0.2-0.6-0.3-0.9s-0.3-0.6-0.5-0.9c-0.2-0.3-0.4-0.5-0.6-0.8c-0.2-0.2-0.5-0.4-0.8-0.6
				c-0.3-0.2-0.6-0.3-0.9-0.5c-0.3-0.1-0.6-0.2-0.9-0.3s-0.6-0.1-1-0.1c-9.8,0-19.5-4.8-23.2-8.5c-0.5-0.5-1-0.8-1.6-1.1
				C104,258.5,103.4,258.4,102.7,258.4z M266.7,264.3l-3.9,2l-0.8,4.3l3,3.2l1.7,0.3l3.9-2l0.8-4.3l-3-3.2L266.7,264.3z
				 M250.3,275.1l-3.9,2l-0.8,4.3l3,3.2l1.7,0.3l3.9-2l0.8-4.3l-3-3.2L250.3,275.1z M232.8,284l-3.9,2l-0.8,4.3l3,3.2l1.7,0.3l3.9-2
				l0.8-4.3l-3-3.2L232.8,284z M214.5,291.1l-3.9,2l-0.8,4.3l3,3.2l1.7,0.3l3.9-2l0.8-4.3l-3-3.2L214.5,291.1z M195.7,296.8l-3.9,2
				l-0.8,4.3l3,3.2l1.7,0.3l3.9-2l0.8-4.3l-3-3.2L195.7,296.8z M118.3,298.1l-3.9,2l-0.8,4.3l3,3.2l1.7,0.3l3.9-2l0.8-4.3l-3-3.2
				L118.3,298.1z M176.5,301.1l-3.9,2l-0.8,4.3l3,3.2l1.7,0.3l3.9-2l0.8-4.3l-3-3.2L176.5,301.1z M137.3,302.8l-3.9,2l-0.8,4.3
				l3,3.2l1.7,0.3l3.9-2l0.8-4.3l-3-3.2L137.3,302.8z M157,303.3l-3.9,2l-0.8,4.3l3,3.2l1.7,0.3l3.9-2l0.8-4.3l-3-3.2L157,303.3z"/>
		</g>
	</g>
	<path class="st1" d="M131.7,137.2h8.6v-8.6h-8.6V137.2"/>
	<path class="st1" d="M123.1,137.2h8.6v-8.6h-8.6V137.2"/>
	<path class="st1" d="M131.7,145.9h8.6v-8.6h-8.6V145.9"/>
	<path class="st1" d="M123.1,145.9h8.6v-8.6h-8.6V145.9"/>
	<path class="st1" d="M114.4,137.2h8.6v-8.6h-8.6V137.2"/>
	<path class="st1" d="M114.4,145.9h8.6v-8.6h-8.6V145.9"/>
	<path class="st1" d="M123.1,154.5h8.6c0,0,0,0,0,0v-8.6c0,0,0,0,0,0h-8.6c0,0,0,0,0,0L123.1,154.5
		C123.1,154.5,123.1,154.5,123.1,154.5"/>
	<path class="st1" d="M114.5,154.5h8.6c0,0,0,0,0,0v-8.6c0,0,0,0,0,0h-8.6c0,0,0,0,0,0L114.5,154.5
		C114.4,154.5,114.4,154.5,114.5,154.5"/>
	<path class="st1" d="M105.8,137.2h8.6v-8.6h-8.6V137.2"/>
	<path class="st1" d="M105.8,145.9h8.6v-8.6h-8.6V145.9"/>
	<path class="st1" d="M105.8,154.5h8.6c0,0,0,0,0,0v-8.6c0,0,0,0,0,0h-8.6c0,0,0,0,0,0L105.8,154.5
		C105.8,154.5,105.8,154.5,105.8,154.5"/>
	<path class="st1" d="M97.2,137.2h8.6v-8.6h-8.6V137.2"/>
	<path class="st1" d="M97.2,145.9h8.6v-8.6h-8.6V145.9"/>
	<path class="st1" d="M97.2,154.5h8.6c0,0,0,0,0,0v-8.6c0,0,0,0,0,0h-8.6c0,0,0,0,0,0L97.2,154.5C97.2,154.5,97.2,154.5,97.2,154.5"
		/>
	<path class="st1" d="M114.5,163.1h8.6c0,0,0,0,0,0v-8.6c0,0,0,0,0,0h-8.6c0,0,0,0,0,0L114.5,163.1
		C114.4,163.1,114.4,163.1,114.5,163.1"/>
	<path class="st1" d="M105.8,163.1h8.6c0,0,0,0,0,0v-8.6c0,0,0,0,0,0h-8.6c0,0,0,0,0,0L105.8,163.1
		C105.8,163.1,105.8,163.1,105.8,163.1"/>
	<path class="st1" d="M97.2,163.1h8.6c0,0,0,0,0,0v-8.6c0,0,0,0,0,0h-8.6c0,0,0,0,0,0L97.2,163.1C97.2,163.1,97.2,163.1,97.2,163.1"
		/>
	<path class="st1" d="M88.5,137.2h8.6v-8.6h-8.6V137.2"/>
	<path class="st1" d="M88.5,145.9h8.6v-8.6h-8.6V145.9"/>
	<path class="st1" d="M88.5,154.5h8.6c0,0,0,0,0,0v-8.6c0,0,0,0,0,0h-8.6c0,0,0,0,0,0L88.5,154.5C88.5,154.5,88.5,154.5,88.5,154.5"
		/>
	<path class="st1" d="M88.5,163.1h8.6c0,0,0,0,0,0v-8.6c0,0,0,0,0,0h-8.6c0,0,0,0,0,0L88.5,163.1C88.5,163.1,88.5,163.1,88.5,163.1"
		/>
	<path class="st1" d="M79.9,137.2h8.6v-8.6h-8.6V137.2"/>
	<path class="st1" d="M79.9,145.9h8.6v-8.6h-8.6V145.9"/>
	<path class="st1" d="M79.9,154.5h8.6c0,0,0,0,0,0v-8.6c0,0,0,0,0,0h-8.6c0,0,0,0,0,0L79.9,154.5C79.9,154.5,79.9,154.5,79.9,154.5"
		/>
	<path class="st1" d="M79.9,163.1h8.6c0,0,0,0,0,0v-8.6c0,0,0,0,0,0h-8.6c0,0,0,0,0,0L79.9,163.1C79.9,163.1,79.9,163.1,79.9,163.1"
		/>
	<path class="st1" d="M71.2,137.2h8.6v-8.6h-8.6V137.2"/>
	<path class="st1" d="M71.2,145.9h8.6v-8.6h-8.6V145.9"/>
	<path class="st1" d="M71.2,154.5h8.6c0,0,0,0,0,0v-8.6c0,0,0,0,0,0h-8.6c0,0,0,0,0,0L71.2,154.5C71.2,154.5,71.2,154.5,71.2,154.5"
		/>
	<path class="st1" d="M62.6,137.2h8.6v-8.6h-8.6V137.2"/>
	<path class="st1" d="M62.6,145.9h8.6v-8.6h-8.6V145.9"/>
	<path class="st1" d="M53.9,137.2h8.6v-8.6h-8.6V137.2"/>
	<path class="st2" d="M53.9,145.9h8.6v-8.6h-8.6V145.9"/>
	<path class="st2" d="M62.6,154.5h8.6c0,0,0,0,0,0v-8.6c0,0,0,0,0,0h-8.6c0,0,0,0,0,0L62.6,154.5C62.6,154.5,62.6,154.5,62.6,154.5"
		/>
	<path class="st1" d="M71.2,163.1h8.6c0,0,0,0,0,0v-8.6c0,0,0,0,0,0h-8.6c0,0,0,0,0,0L71.2,163.1C71.2,163.1,71.2,163.1,71.2,163.1"
		/>
	<g>
		<defs>
			<rect id="SVGID_3_" x="105" y="162.3" width="10" height="9.4"/>
		</defs>
		<clipPath id="SVGID_4_">
			<use xlink:href="#SVGID_3_"  style="overflow:visible;"/>
		</clipPath>
		<g class="st3">
			<path class="st1" d="M105.8,171.8h8.6c0,0,0,0,0,0v-8.6c0,0,0,0,0,0h-8.6c0,0,0,0,0,0L105.8,171.8
				C105.8,171.8,105.8,171.8,105.8,171.8"/>
		</g>
	</g>
	<g>
		<defs>
			<rect id="SVGID_5_" x="97" y="162.3" width="9" height="9.4"/>
		</defs>
		<clipPath id="SVGID_6_">
			<use xlink:href="#SVGID_5_"  style="overflow:visible;"/>
		</clipPath>
		<g class="st4">
			<path class="st1" d="M97.2,171.8h8.6c0,0,0,0,0,0v-8.6c0,0,0,0,0,0h-8.6c0,0,0,0,0,0L97.2,171.8
				C97.2,171.8,97.2,171.8,97.2,171.8"/>
		</g>
	</g>
	<g>
		<defs>
			<rect id="SVGID_7_" x="88" y="162.3" width="10" height="9.4"/>
		</defs>
		<clipPath id="SVGID_8_">
			<use xlink:href="#SVGID_7_"  style="overflow:visible;"/>
		</clipPath>
		<g class="st5">
			<path class="st1" d="M88.5,171.8h8.6c0,0,0,0,0,0v-8.6c0,0,0,0,0,0h-8.6c0,0,0,0,0,0L88.5,171.8
				C88.5,171.8,88.5,171.8,88.5,171.8"/>
		</g>
	</g>
	<g>
		<defs>
			<rect id="SVGID_9_" x="79" y="162.3" width="10" height="9.4"/>
		</defs>
		<clipPath id="SVGID_10_">
			<use xlink:href="#SVGID_9_"  style="overflow:visible;"/>
		</clipPath>
		<g class="st6">
			<path class="st1" d="M79.9,171.8h8.6c0,0,0,0,0,0v-8.6c0,0,0,0,0,0h-8.6c0,0,0,0,0,0L79.9,171.8
				C79.9,171.8,79.9,171.8,79.9,171.8"/>
		</g>
	</g>
	<g>
		<defs>
			<rect id="SVGID_11_" x="71" y="162.3" width="9" height="9.4"/>
		</defs>
		<clipPath id="SVGID_12_">
			<use xlink:href="#SVGID_11_"  style="overflow:visible;"/>
		</clipPath>
		<g class="st7">
			<path class="st1" d="M71.2,171.8h8.6c0,0,0,0,0,0v-8.6c0,0,0,0,0,0h-8.6c0,0,0,0,0,0L71.2,171.8
				C71.2,171.8,71.2,171.8,71.2,171.8"/>
		</g>
	</g>
	<g>
		<defs>
			<rect id="SVGID_13_" x="62" y="162.3" width="10" height="9.4"/>
		</defs>
		<clipPath id="SVGID_14_">
			<use xlink:href="#SVGID_13_"  style="overflow:visible;"/>
		</clipPath>
		<g class="st8">
			<path class="st1" d="M62.6,171.8h8.6c0,0,0,0,0,0v-8.6c0,0,0,0,0,0h-8.6c0,0,0,0,0,0L62.6,171.8
				C62.6,171.8,62.6,171.8,62.6,171.8"/>
		</g>
	</g>
	<path class="st1" d="M62.6,163.1h8.6c0,0,0,0,0,0v-8.6c0,0,0,0,0,0h-8.6c0,0,0,0,0,0L62.6,163.1C62.6,163.1,62.6,163.1,62.6,163.1"
		/>
	<path class="st1" d="M54,163.1h8.6c0,0,0,0,0,0v-8.6c0,0,0,0,0,0H54c0,0,0,0,0,0L54,163.1C53.9,163.1,53.9,163.1,54,163.1"/>
	<path class="st1" d="M54,154.5h8.6c0,0,0,0,0,0v-8.6c0,0,0,0,0,0H54c0,0,0,0,0,0L54,154.5C53.9,154.5,53.9,154.5,54,154.5"/>
	<path class="st1" d="M45.3,154.5h8.6c0,0,0,0,0,0v-8.6c0,0,0,0,0,0h-8.6c0,0,0,0,0,0L45.3,154.5C45.3,154.5,45.3,154.5,45.3,154.5"
		/>
	<path class="st1" d="M45.3,145.9h8.6c0,0,0,0,0,0v-8.6c0,0,0,0,0,0h-8.6c0,0,0,0,0,0L45.3,145.9C45.3,145.9,45.3,145.9,45.3,145.9"
		/>
	<path class="st1" d="M36.7,145.9h8.6c0,0,0,0,0,0v-8.6c0,0,0,0,0,0h-8.6c0,0,0,0,0,0L36.7,145.9C36.7,145.9,36.7,145.9,36.7,145.9"
		/>
	<path class="st1" d="M36.7,137.2h8.6c0,0,0,0,0,0v-8.6c0,0,0,0,0,0h-8.6c0,0,0,0,0,0L36.7,137.2C36.7,137.2,36.7,137.2,36.7,137.2"
		/>
	<path class="st2" d="M45.3,137.2h8.6c0,0,0,0,0,0v-8.6c0,0,0,0,0,0h-8.6c0,0,0,0,0,0L45.3,137.2C45.3,137.2,45.3,137.2,45.3,137.2"
		/>
	<path class="st1" d="M28,137.2h8.6c0,0,0,0,0,0v-8.6c0,0,0,0,0,0H28c0,0,0,0,0,0L28,137.2C28,137.2,28,137.2,28,137.2"/>
	<g>
		<defs>
			<rect id="SVGID_15_" x="131" y="119.9" width="10" height="9.3"/>
		</defs>
		<clipPath id="SVGID_16_">
			<use xlink:href="#SVGID_15_"  style="overflow:visible;"/>
		</clipPath>
		<g class="st9">
			<path class="st1" d="M131.7,128.6h8.6V120h-8.6V128.6"/>
		</g>
	</g>
	<g>
		<defs>
			<rect id="SVGID_17_" x="123" y="119.9" width="9" height="9.3"/>
		</defs>
		<clipPath id="SVGID_18_">
			<use xlink:href="#SVGID_17_"  style="overflow:visible;"/>
		</clipPath>
		<g class="st10">
			<path class="st1" d="M123.1,128.6h8.6V120h-8.6V128.6"/>
		</g>
	</g>
	<g>
		<defs>
			<rect id="SVGID_19_" x="114" y="119.9" width="10" height="9.3"/>
		</defs>
		<clipPath id="SVGID_20_">
			<use xlink:href="#SVGID_19_"  style="overflow:visible;"/>
		</clipPath>
		<g class="st11">
			<path class="st1" d="M114.4,128.6h8.6V120h-8.6V128.6"/>
		</g>
	</g>
	<g>
		<defs>
			<rect id="SVGID_21_" x="105" y="119.9" width="10" height="9.3"/>
		</defs>
		<clipPath id="SVGID_22_">
			<use xlink:href="#SVGID_21_"  style="overflow:visible;"/>
		</clipPath>
		<g class="st12">
			<path class="st1" d="M105.8,128.6h8.6V120h-8.6V128.6"/>
		</g>
	</g>
	<g>
		<defs>
			<rect id="SVGID_23_" x="97" y="119.9" width="9" height="9.3"/>
		</defs>
		<clipPath id="SVGID_24_">
			<use xlink:href="#SVGID_23_"  style="overflow:visible;"/>
		</clipPath>
		<g class="st13">
			<path class="st1" d="M97.2,128.6h8.6V120h-8.6V128.6"/>
		</g>
	</g>
	<g>
		<defs>
			<rect id="SVGID_25_" x="88" y="119.9" width="10" height="9.3"/>
		</defs>
		<clipPath id="SVGID_26_">
			<use xlink:href="#SVGID_25_"  style="overflow:visible;"/>
		</clipPath>
		<g class="st14">
			<path class="st1" d="M88.5,128.6h8.6V120h-8.6V128.6"/>
		</g>
	</g>
	<g>
		<defs>
			<rect id="SVGID_27_" x="79" y="119.9" width="10" height="9.3"/>
		</defs>
		<clipPath id="SVGID_28_">
			<use xlink:href="#SVGID_27_"  style="overflow:visible;"/>
		</clipPath>
		<g class="st15">
			<path class="st1" d="M79.9,128.6h8.6V120h-8.6V128.6"/>
		</g>
	</g>
	<g>
		<defs>
			<rect id="SVGID_29_" x="71" y="119.9" width="9" height="9.3"/>
		</defs>
		<clipPath id="SVGID_30_">
			<use xlink:href="#SVGID_29_"  style="overflow:visible;"/>
		</clipPath>
		<g class="st16">
			<path class="st1" d="M71.2,128.6h8.6V120h-8.6V128.6"/>
		</g>
	</g>
	<g>
		<defs>
			<rect id="SVGID_31_" x="62" y="119.9" width="10" height="9.3"/>
		</defs>
		<clipPath id="SVGID_32_">
			<use xlink:href="#SVGID_31_"  style="overflow:visible;"/>
		</clipPath>
		<g class="st17">
			<path class="st1" d="M62.6,128.6h8.6V120h-8.6V128.6"/>
		</g>
	</g>
	<g>
		<defs>
			<rect id="SVGID_33_" x="53" y="119.9" width="10" height="9.3"/>
		</defs>
		<clipPath id="SVGID_34_">
			<use xlink:href="#SVGID_33_"  style="overflow:visible;"/>
		</clipPath>
		<g class="st18">
			<path class="st1" d="M53.9,128.6h8.6V120h-8.6V128.6"/>
		</g>
	</g>
	<g>
		<defs>
			<rect id="SVGID_35_" x="45" y="119.9" width="9" height="9.3"/>
		</defs>
		<clipPath id="SVGID_36_">
			<use xlink:href="#SVGID_35_"  style="overflow:visible;"/>
		</clipPath>
		<g class="st19">
			<path class="st1" d="M45.3,128.6h8.6V120h-8.6V128.6"/>
		</g>
	</g>
	<g>
		<defs>
			<rect id="SVGID_37_" x="36" y="119.9" width="10" height="9.3"/>
		</defs>
		<clipPath id="SVGID_38_">
			<use xlink:href="#SVGID_37_"  style="overflow:visible;"/>
		</clipPath>
		<g class="st20">
			<path class="st1" d="M36.7,128.6h8.6V120h-8.6V128.6"/>
		</g>
	</g>
	<g>
		<defs>
			<rect id="SVGID_39_" x="28" y="119.9" width="9" height="9.3"/>
		</defs>
		<clipPath id="SVGID_40_">
			<use xlink:href="#SVGID_39_"  style="overflow:visible;"/>
		</clipPath>
		<g class="st21">
			<path class="st1" d="M28,128.6h8.6V120H28V128.6"/>
		</g>
	</g>
	<path class="st1" d="M149,137.2h-8.6v-8.6h8.6V137.2"/>
	<path class="st1" d="M157.6,137.2H149v-8.6h8.6V137.2"/>
	<path class="st1" d="M166.3,137.2h-8.6v-8.6h8.6V137.2"/>
	<path class="st1" d="M149,145.9h-8.6v-8.6h8.6V145.9"/>
	<path class="st1" d="M157.6,145.9H149v-8.6h8.6V145.9"/>
	<path class="st1" d="M166.3,145.9h-8.6v-8.6h8.6V145.9"/>
	<path class="st1" d="M174.9,137.2h-8.6v-8.6h8.6V137.2"/>
	<path class="st1" d="M174.9,145.9h-8.6v-8.6h8.6V145.9"/>
	<path class="st1" d="M166.3,154.5h-8.6c0,0,0,0,0,0v-8.6c0,0,0,0,0,0h8.6c0,0,0,0,0,0L166.3,154.5
		C166.3,154.5,166.3,154.5,166.3,154.5"/>
	<path class="st1" d="M174.9,154.5h-8.6c0,0,0,0,0,0v-8.6c0,0,0,0,0,0h8.6c0,0,0,0,0,0L174.9,154.5
		C174.9,154.5,174.9,154.5,174.9,154.5"/>
	<path class="st1" d="M183.6,137.2h-8.6v-8.6h8.6V137.2"/>
	<path class="st1" d="M183.6,145.9h-8.6v-8.6h8.6V145.9"/>
	<path class="st1" d="M183.5,154.5h-8.6c0,0,0,0,0,0v-8.6c0,0,0,0,0,0h8.6c0,0,0,0,0,0L183.5,154.5
		C183.6,154.5,183.6,154.5,183.5,154.5"/>
	<path class="st1" d="M192.2,137.2h-8.6v-8.6h8.6V137.2"/>
	<path class="st1" d="M192.2,145.9h-8.6v-8.6h8.6V145.9"/>
	<path class="st1" d="M192.2,154.5h-8.6c0,0,0,0,0,0v-8.6c0,0,0,0,0,0h8.6c0,0,0,0,0,0L192.2,154.5
		C192.2,154.5,192.2,154.5,192.2,154.5"/>
	<path class="st1" d="M174.9,163.1h-8.6c0,0,0,0,0,0v-8.6c0,0,0,0,0,0h8.6c0,0,0,0,0,0L174.9,163.1
		C174.9,163.1,174.9,163.1,174.9,163.1"/>
	<path class="st1" d="M183.5,163.1h-8.6c0,0,0,0,0,0v-8.6c0,0,0,0,0,0h8.6c0,0,0,0,0,0L183.5,163.1
		C183.6,163.1,183.6,163.1,183.5,163.1"/>
	<path class="st1" d="M192.2,163.1h-8.6c0,0,0,0,0,0v-8.6c0,0,0,0,0,0h8.6c0,0,0,0,0,0L192.2,163.1
		C192.2,163.1,192.2,163.1,192.2,163.1"/>
	<path class="st1" d="M200.8,137.2h-8.6v-8.6h8.6V137.2"/>
	<path class="st1" d="M200.8,145.9h-8.6v-8.6h8.6V145.9"/>
	<path class="st1" d="M200.8,154.5h-8.6c0,0,0,0,0,0v-8.6c0,0,0,0,0,0h8.6c0,0,0,0,0,0L200.8,154.5
		C200.8,154.5,200.8,154.5,200.8,154.5"/>
	<path class="st1" d="M200.8,163.1h-8.6c0,0,0,0,0,0v-8.6c0,0,0,0,0,0h8.6c0,0,0,0,0,0L200.8,163.1
		C200.8,163.1,200.8,163.1,200.8,163.1"/>
	<path class="st1" d="M209.5,137.2h-8.6v-8.6h8.6V137.2"/>
	<path class="st1" d="M209.5,145.9h-8.6v-8.6h8.6V145.9"/>
	<path class="st1" d="M209.5,154.5h-8.6c0,0,0,0,0,0v-8.6c0,0,0,0,0,0h8.6c0,0,0,0,0,0L209.5,154.5
		C209.5,154.5,209.5,154.5,209.5,154.5"/>
	<path class="st1" d="M209.5,163.1h-8.6c0,0,0,0,0,0v-8.6c0,0,0,0,0,0h8.6c0,0,0,0,0,0L209.5,163.1
		C209.5,163.1,209.5,163.1,209.5,163.1"/>
	<path class="st1" d="M218.1,137.2h-8.6v-8.6h8.6V137.2"/>
	<path class="st1" d="M218.1,145.9h-8.6v-8.6h8.6V145.9"/>
	<path class="st1" d="M218.1,154.5h-8.6c0,0,0,0,0,0v-8.6c0,0,0,0,0,0h8.6c0,0,0,0,0,0L218.1,154.5
		C218.1,154.5,218.1,154.5,218.1,154.5"/>
	<path class="st1" d="M226.8,137.2h-8.6v-8.6h8.6V137.2"/>
	<path class="st1" d="M226.8,145.9h-8.6v-8.6h8.6V145.9"/>
	<path class="st1" d="M235.4,137.2h-8.6v-8.6h8.6V137.2"/>
	<path class="st2" d="M235.4,145.9h-8.6v-8.6h8.6V145.9"/>
	<path class="st2" d="M226.8,154.5h-8.6c0,0,0,0,0,0v-8.6c0,0,0,0,0,0h8.6c0,0,0,0,0,0L226.8,154.5
		C226.8,154.5,226.8,154.5,226.8,154.5"/>
	<path class="st1" d="M218.1,163.1h-8.6c0,0,0,0,0,0v-8.6c0,0,0,0,0,0h8.6c0,0,0,0,0,0L218.1,163.1
		C218.1,163.1,218.1,163.1,218.1,163.1"/>
	<g>
		<defs>
			<rect id="SVGID_41_" x="174" y="162.3" width="10" height="9.4"/>
		</defs>
		<clipPath id="SVGID_42_">
			<use xlink:href="#SVGID_41_"  style="overflow:visible;"/>
		</clipPath>
		<g class="st22">
			<path class="st1" d="M183.5,171.8h-8.6c0,0,0,0,0,0v-8.6c0,0,0,0,0,0h8.6c0,0,0,0,0,0L183.5,171.8
				C183.6,171.8,183.6,171.8,183.5,171.8"/>
		</g>
	</g>
	<g>
		<defs>
			<rect id="SVGID_43_" x="183" y="162.3" width="10" height="9.4"/>
		</defs>
		<clipPath id="SVGID_44_">
			<use xlink:href="#SVGID_43_"  style="overflow:visible;"/>
		</clipPath>
		<g class="st23">
			<path class="st1" d="M192.2,171.8h-8.6c0,0,0,0,0,0v-8.6c0,0,0,0,0,0h8.6c0,0,0,0,0,0L192.2,171.8
				C192.2,171.8,192.2,171.8,192.2,171.8"/>
		</g>
	</g>
	<g>
		<defs>
			<rect id="SVGID_45_" x="192" y="162.3" width="9" height="9.4"/>
		</defs>
		<clipPath id="SVGID_46_">
			<use xlink:href="#SVGID_45_"  style="overflow:visible;"/>
		</clipPath>
		<g class="st24">
			<path class="st1" d="M200.8,171.8h-8.6c0,0,0,0,0,0v-8.6c0,0,0,0,0,0h8.6c0,0,0,0,0,0L200.8,171.8
				C200.8,171.8,200.8,171.8,200.8,171.8"/>
		</g>
	</g>
	<g>
		<defs>
			<rect id="SVGID_47_" x="200" y="162.3" width="10" height="9.4"/>
		</defs>
		<clipPath id="SVGID_48_">
			<use xlink:href="#SVGID_47_"  style="overflow:visible;"/>
		</clipPath>
		<g class="st25">
			<path class="st1" d="M209.5,171.8h-8.6c0,0,0,0,0,0v-8.6c0,0,0,0,0,0h8.6c0,0,0,0,0,0L209.5,171.8
				C209.5,171.8,209.5,171.8,209.5,171.8"/>
		</g>
	</g>
	<g>
		<defs>
			<rect id="SVGID_49_" x="209" y="162.3" width="10" height="9.4"/>
		</defs>
		<clipPath id="SVGID_50_">
			<use xlink:href="#SVGID_49_"  style="overflow:visible;"/>
		</clipPath>
		<g class="st26">
			<path class="st1" d="M218.1,171.8h-8.6c0,0,0,0,0,0v-8.6c0,0,0,0,0,0h8.6c0,0,0,0,0,0L218.1,171.8
				C218.1,171.8,218.1,171.8,218.1,171.8"/>
		</g>
	</g>
	<g>
		<defs>
			<rect id="SVGID_51_" x="218" y="162.3" width="9" height="9.4"/>
		</defs>
		<clipPath id="SVGID_52_">
			<use xlink:href="#SVGID_51_"  style="overflow:visible;"/>
		</clipPath>
		<g class="st27">
			<path class="st1" d="M226.8,171.8h-8.6c0,0,0,0,0,0v-8.6c0,0,0,0,0,0h8.6c0,0,0,0,0,0L226.8,171.8
				C226.8,171.8,226.8,171.8,226.8,171.8"/>
		</g>
	</g>
	<path class="st1" d="M226.8,163.1h-8.6c0,0,0,0,0,0v-8.6c0,0,0,0,0,0h8.6c0,0,0,0,0,0L226.8,163.1
		C226.8,163.1,226.8,163.1,226.8,163.1"/>
	<path class="st1" d="M235.4,163.1h-8.6c0,0,0,0,0,0v-8.6c0,0,0,0,0,0h8.6c0,0,0,0,0,0L235.4,163.1
		C235.4,163.1,235.4,163.1,235.4,163.1"/>
	<path class="st1" d="M235.4,154.5h-8.6c0,0,0,0,0,0v-8.6c0,0,0,0,0,0h8.6c0,0,0,0,0,0L235.4,154.5
		C235.4,154.5,235.4,154.5,235.4,154.5"/>
	<path class="st1" d="M244,154.5h-8.6c0,0,0,0,0,0v-8.6c0,0,0,0,0,0h8.6c0,0,0,0,0,0L244,154.5C244.1,154.5,244.1,154.5,244,154.5"
		/>
	<path class="st1" d="M244,145.9h-8.6c0,0,0,0,0,0v-8.6c0,0,0,0,0,0h8.6c0,0,0,0,0,0L244,145.9C244.1,145.9,244.1,145.9,244,145.9"
		/>
	<path class="st1" d="M252.7,145.9h-8.6c0,0,0,0,0,0v-8.6c0,0,0,0,0,0h8.6c0,0,0,0,0,0L252.7,145.9
		C252.7,145.9,252.7,145.9,252.7,145.9"/>
	<path class="st1" d="M252.7,137.2h-8.6c0,0,0,0,0,0v-8.6c0,0,0,0,0,0h8.6c0,0,0,0,0,0L252.7,137.2
		C252.7,137.2,252.7,137.2,252.7,137.2"/>
	<path class="st2" d="M244,137.2h-8.6c0,0,0,0,0,0v-8.6c0,0,0,0,0,0h8.6c0,0,0,0,0,0L244,137.2C244.1,137.2,244.1,137.2,244,137.2"
		/>
	<g>
		<defs>
			<rect id="SVGID_53_" x="252" y="128.3" width="9.5" height="9"/>
		</defs>
		<clipPath id="SVGID_54_">
			<use xlink:href="#SVGID_53_"  style="overflow:visible;"/>
		</clipPath>
		<g class="st28">
			<path class="st1" d="M261.3,137.2h-8.6c0,0,0,0,0,0v-8.6c0,0,0,0,0,0h8.6c0,0,0,0,0,0L261.3,137.2
				C261.3,137.2,261.3,137.2,261.3,137.2"/>
		</g>
	</g>
	<g>
		<defs>
			<rect id="SVGID_55_" x="140" y="119.9" width="10" height="9.3"/>
		</defs>
		<clipPath id="SVGID_56_">
			<use xlink:href="#SVGID_55_"  style="overflow:visible;"/>
		</clipPath>
		<g class="st29">
			<path class="st1" d="M149,128.6h-8.6V120h8.6V128.6"/>
		</g>
	</g>
	<g>
		<defs>
			<rect id="SVGID_57_" x="149" y="119.9" width="9" height="9.3"/>
		</defs>
		<clipPath id="SVGID_58_">
			<use xlink:href="#SVGID_57_"  style="overflow:visible;"/>
		</clipPath>
		<g class="st30">
			<path class="st1" d="M157.6,128.6H149V120h8.6V128.6"/>
		</g>
	</g>
	<g>
		<defs>
			<rect id="SVGID_59_" x="157" y="119.9" width="10" height="9.3"/>
		</defs>
		<clipPath id="SVGID_60_">
			<use xlink:href="#SVGID_59_"  style="overflow:visible;"/>
		</clipPath>
		<g class="st31">
			<path class="st1" d="M166.3,128.6h-8.6V120h8.6V128.6"/>
		</g>
	</g>
	<g>
		<defs>
			<rect id="SVGID_61_" x="166" y="119.9" width="9" height="9.3"/>
		</defs>
		<clipPath id="SVGID_62_">
			<use xlink:href="#SVGID_61_"  style="overflow:visible;"/>
		</clipPath>
		<g class="st32">
			<path class="st1" d="M174.9,128.6h-8.6V120h8.6V128.6"/>
		</g>
	</g>
	<g>
		<defs>
			<rect id="SVGID_63_" x="174" y="119.9" width="10" height="9.3"/>
		</defs>
		<clipPath id="SVGID_64_">
			<use xlink:href="#SVGID_63_"  style="overflow:visible;"/>
		</clipPath>
		<g class="st33">
			<path class="st1" d="M183.6,128.6h-8.6V120h8.6V128.6"/>
		</g>
	</g>
	<g>
		<defs>
			<rect id="SVGID_65_" x="183" y="119.9" width="10" height="9.3"/>
		</defs>
		<clipPath id="SVGID_66_">
			<use xlink:href="#SVGID_65_"  style="overflow:visible;"/>
		</clipPath>
		<g class="st34">
			<path class="st1" d="M192.2,128.6h-8.6V120h8.6V128.6"/>
		</g>
	</g>
	<g>
		<defs>
			<rect id="SVGID_67_" x="192" y="119.9" width="9" height="9.3"/>
		</defs>
		<clipPath id="SVGID_68_">
			<use xlink:href="#SVGID_67_"  style="overflow:visible;"/>
		</clipPath>
		<g class="st35">
			<path class="st1" d="M200.8,128.6h-8.6V120h8.6V128.6"/>
		</g>
	</g>
	<g>
		<defs>
			<rect id="SVGID_69_" x="200" y="119.9" width="10" height="9.3"/>
		</defs>
		<clipPath id="SVGID_70_">
			<use xlink:href="#SVGID_69_"  style="overflow:visible;"/>
		</clipPath>
		<g class="st36">
			<path class="st1" d="M209.5,128.6h-8.6V120h8.6V128.6"/>
		</g>
	</g>
	<g>
		<defs>
			<rect id="SVGID_71_" x="209" y="119.9" width="10" height="9.3"/>
		</defs>
		<clipPath id="SVGID_72_">
			<use xlink:href="#SVGID_71_"  style="overflow:visible;"/>
		</clipPath>
		<g class="st37">
			<path class="st1" d="M218.1,128.6h-8.6V120h8.6V128.6"/>
		</g>
	</g>
	<g>
		<defs>
			<rect id="SVGID_73_" x="218" y="119.9" width="9" height="9.3"/>
		</defs>
		<clipPath id="SVGID_74_">
			<use xlink:href="#SVGID_73_"  style="overflow:visible;"/>
		</clipPath>
		<g class="st38">
			<path class="st1" d="M226.8,128.6h-8.6V120h8.6V128.6"/>
		</g>
	</g>
	<g>
		<defs>
			<rect id="SVGID_75_" x="226" y="119.9" width="10" height="9.3"/>
		</defs>
		<clipPath id="SVGID_76_">
			<use xlink:href="#SVGID_75_"  style="overflow:visible;"/>
		</clipPath>
		<g class="st39">
			<path class="st1" d="M235.4,128.6h-8.6V120h8.6V128.6"/>
		</g>
	</g>
	<g>
		<defs>
			<rect id="SVGID_77_" x="235" y="119.9" width="10" height="9.3"/>
		</defs>
		<clipPath id="SVGID_78_">
			<use xlink:href="#SVGID_77_"  style="overflow:visible;"/>
		</clipPath>
		<g class="st40">
			<path class="st1" d="M244.1,128.6h-8.6V120h8.6V128.6"/>
		</g>
	</g>
	<g>
		<defs>
			<rect id="SVGID_79_" x="244" y="119.9" width="9" height="9.3"/>
		</defs>
		<clipPath id="SVGID_80_">
			<use xlink:href="#SVGID_79_"  style="overflow:visible;"/>
		</clipPath>
		<g class="st41">
			<path class="st1" d="M252.7,128.6h-8.6V120h8.6V128.6"/>
		</g>
	</g>
	<g>
		<defs>
			<rect id="SVGID_81_" x="252" y="119.9" width="9.5" height="9.3"/>
		</defs>
		<clipPath id="SVGID_82_">
			<use xlink:href="#SVGID_81_"  style="overflow:visible;"/>
		</clipPath>
		<g class="st42">
			<path class="st1" d="M261.3,128.6h-8.6V120h8.6V128.6"/>
		</g>
	</g>
</g>
</svg>
