<svg id="Layer_1" data-name="Layer 1" xmlns="http://www.w3.org/2000/svg" xmlns:xlink="http://www.w3.org/1999/xlink" viewBox="0 0 300 270"><defs><style>.cls-1{fill:none;}.cls-2{fill:#8d8d8d;}.cls-3{clip-path:url(#clip-path);}.cls-4{fill:#58595b;}.cls-5{clip-path:url(#clip-path-2);}.cls-6{fill:#c23643;}.cls-7{font-size:36px;font-family:CourierNewPS-BoldMT, Courier New;font-weight:700;}</style><clipPath id="clip-path"><rect class="cls-1" x="81" y="54" width="139.86" height="94.29"/></clipPath><clipPath id="clip-path-2"><rect class="cls-1" x="180.56" y="124.52" width="44.44" height="40.18"/></clipPath></defs><path class="cls-2" d="M165.9,154.21a1.75,1.75,0,0,1-1.69,1.78H137.39a1.75,1.75,0,0,1-1.68-1.78v-2.58a1.75,1.75,0,0,1,1.68-1.78h26.82a1.72,1.72,0,0,1,1.69,1.78v2.58"/><path class="cls-2" d="M186.23,161.47a1.75,1.75,0,0,1-1.69,1.78H117.11a1.75,1.75,0,0,1-1.68-1.78v-1.88a1.75,1.75,0,0,1,1.68-1.78h67.43a1.72,1.72,0,0,1,1.69,1.78v1.88"/><g class="cls-3"><path class="cls-2" d="M215.55,135.38a6.92,6.92,0,0,1-6.85,7H92.85a6.91,6.91,0,0,1-6.84-7V66.53a6.91,6.91,0,0,1,6.84-7H208.7a6.92,6.92,0,0,1,6.85,7v68.85Zm-2.81-81.27H88.87a7.93,7.93,0,0,0-7.82,8.12v77.62A8,8,0,0,0,88.87,148H212.69a7.93,7.93,0,0,0,7.81-8.12V62.18a7.87,7.87,0,0,0-7.76-8.07"/></g><path class="cls-4" d="M173.66,119.73a29.65,29.65,0,0,1-42.5,5.11,32,32,0,0,1-5-43.84,29.65,29.65,0,0,1,42.5-5.11A31.91,31.91,0,0,1,173.66,119.73Zm-53-43.25c-12.77,16.63-10,40.78,6.08,53.9a36.55,36.55,0,0,0,52.36-6.29,39.13,39.13,0,0,0-6.08-53.9,36.6,36.6,0,0,0-52.36,6.29"/><path class="cls-4" d="M179.23,120l-5.06,6.62,10.73,8.71,5.06-6.62L179.23,120"/><g class="cls-5"><path class="cls-4" d="M225,154l-8.23,10.7-35.29-28.83,8.22-10.71L225,154"/></g><path class="cls-6" d="M167.53,100.69c-.56-5.27-2.7-22.16-8.22-22.16-6.44,0-5.47,9.14-9.2,9-3.78.05-2.75-9-9.19-9-5.47,0-7.66,16.89-8.23,22.16H123v4.63h54.15v-4.63h-9.66"/><path class="cls-6" d="M159.92,117.53a9.93,9.93,0,0,1-5.26-1.78l10.57-5.16C165.23,110.48,162.83,117.53,159.92,117.53Zm-19.61,0c-2.86,0-5.27-6.94-5.27-6.94l10.58,5.16A11,11,0,0,1,140.31,117.53Zm3.27-9.26H131.47s2,14,8.84,14,5.77-5.38,9.75-5.38,3,5.38,9.76,5.38,8.84-14,8.84-14H143.58"/><text class="cls-7" transform="translate(48 204)">Logdective</text></svg>